<svg width="776" height="774" viewBox="0 0 776 774" fill="none" xmlns="http://www.w3.org/2000/svg">
<path d="M591 295.5C591 458.7 458.7 591 295.5 591C132.3 591 0 458.7 0 295.5C0 132.3 132.3 0 295.5 0C458.7 0 591 132.3 591 295.5Z" fill="#198754"/>
<path fill-rule="evenodd" clip-rule="evenodd" d="M591 295.5C591 338.913 581.638 380.139 564.824 417.27L450.545 302.991C434.533 286.98 408.574 286.98 392.562 302.991L338.277 357.277L198.991 217.991C182.98 201.98 157.02 201.98 141.009 217.991L5.65848 353.342C1.94648 334.636 0 315.295 0 295.5C0 132.3 132.3 0 295.5 0C458.7 0 591 132.3 591 295.5ZM332.5 209C362.6 209 387 184.6 387 154.5C387 124.4 362.6 100 332.5 100C302.4 100 278 124.4 278 154.5C278 184.6 302.4 209 332.5 209Z" fill="#CFE6DB"/>
<path d="M776 478.5C776 641.7 643.7 774 480.5 774C317.3 774 185 641.7 185 478.5C185 315.3 317.3 183 480.5 183C643.7 183 776 315.3 776 478.5Z" fill="#198754"/>
<path fill-rule="evenodd" clip-rule="evenodd" d="M776 478.5C776 521.913 766.638 563.139 749.824 600.27L635.545 485.991C619.533 469.98 593.574 469.98 577.562 485.991L523.277 540.277L383.991 400.991C367.98 384.98 342.02 384.98 326.009 400.991L190.658 536.342C186.946 517.636 185 498.295 185 478.5C185 315.3 317.3 183 480.5 183C643.7 183 776 315.3 776 478.5ZM517.5 392C547.6 392 572 367.6 572 337.5C572 307.4 547.6 283 517.5 283C487.4 283 463 307.4 463 337.5C463 367.6 487.4 392 517.5 392Z" fill="#CFE6DB"/>
<path fill-rule="evenodd" clip-rule="evenodd" d="M574.202 392.476C572.117 398.453 569.845 404.343 567.394 410.138C566.437 412.402 565.452 414.652 564.44 416.886C560.691 425.164 556.572 433.239 552.104 441.089L332.872 221.857C348.194 213.034 364.382 205.546 381.277 199.551L574.202 392.476ZM588.819 327.897C590.006 317.134 590.616 306.196 590.616 295.116C590.616 261.069 584.858 228.367 574.263 197.93C544.692 187.998 513.033 182.616 480.116 182.616C468.419 182.616 456.881 183.296 445.539 184.618L588.819 327.897ZM288.888 252.826C276.167 263.635 264.373 275.502 253.642 288.291L486.027 520.676C498.763 509.885 510.574 498.034 521.322 485.261L288.888 252.826ZM441.988 551.59L222.916 332.518C214.171 347.932 206.772 364.21 200.879 381.192L393.522 573.835C410.437 567.863 426.645 560.395 441.988 551.59ZM329.167 588.676L186.356 445.865C185.206 456.457 184.616 467.218 184.616 478.116C184.616 497.912 186.563 517.253 190.275 535.958C192.947 549.424 196.535 562.562 200.97 575.302C230.54 585.234 262.2 590.616 295.116 590.616C306.632 590.616 317.994 589.957 329.167 588.676Z" fill="#198754" fill-opacity="0.58"/>
</svg>
