<svg width="622" height="622" viewBox="0 0 622 622" fill="none" xmlns="http://www.w3.org/2000/svg">
<path d="M95.3398 105.621C95.3398 110.973 94.0898 115.484 91.5898 119.156C89.0898 122.789 85.6523 125.543 81.2773 127.418C76.9414 129.254 72.0195 130.172 66.5117 130.172C61.0039 130.172 56.0625 129.254 51.6875 127.418C47.3125 125.543 43.8555 122.789 41.3164 119.156C38.7773 115.484 37.5078 110.973 37.5078 105.621C37.5078 102.027 38.2305 98.7852 39.6758 95.8945C41.1211 92.9648 43.1328 90.4648 45.7109 88.3945C48.3281 86.2852 51.3945 84.6836 54.9102 83.5898C58.4258 82.457 62.2539 81.8906 66.3945 81.8906C71.9414 81.8906 76.9023 82.8672 81.2773 84.8203C85.6523 86.7734 89.0898 89.5273 91.5898 93.082C94.0898 96.6367 95.3398 100.816 95.3398 105.621ZM78.3477 104.508C78.3477 101.891 77.8398 99.6445 76.8242 97.7695C75.8477 95.8555 74.4609 94.3906 72.6641 93.375C70.8672 92.3594 68.7773 91.8516 66.3945 91.8516C64.0117 91.8516 61.9219 92.3594 60.125 93.375C58.3281 94.3906 56.9219 95.8555 55.9062 97.7695C54.9297 99.6445 54.4414 101.891 54.4414 104.508C54.4414 107.086 54.9297 109.312 55.9062 111.188C56.9219 113.062 58.3281 114.508 60.125 115.523C61.9609 116.5 64.0898 116.988 66.5117 116.988C68.9336 116.988 71.0234 116.5 72.7812 115.523C74.5781 114.508 75.9453 113.062 76.8828 111.188C77.8594 109.312 78.3477 107.086 78.3477 104.508ZM93.5234 66.3047C93.5234 70.6406 92.3711 74.4883 90.0664 77.8477C87.7617 81.168 84.5586 83.7656 80.457 85.6406C76.3945 87.5156 71.7461 88.4531 66.5117 88.4531C61.2383 88.4531 56.5508 87.5156 52.4492 85.6406C48.3477 83.7656 45.1445 81.168 42.8398 77.8477C40.5352 74.4883 39.3828 70.6406 39.3828 66.3047C39.3828 61.1484 40.5352 56.8125 42.8398 53.2969C45.1836 49.7422 48.3867 47.0469 52.4492 45.2109C56.5508 43.375 61.1992 42.457 66.3945 42.457C71.668 42.457 76.3359 43.375 80.3984 45.2109C84.5 47.0469 87.7031 49.7422 90.0078 53.2969C92.3516 56.8125 93.5234 61.1484 93.5234 66.3047ZM76.6484 67.0664C76.6484 64.7617 76.2383 62.7695 75.418 61.0898C74.5977 59.3711 73.4258 58.043 71.9023 57.1055C70.418 56.168 68.582 55.6992 66.3945 55.6992C64.2852 55.6992 62.4688 56.1484 60.9453 57.0469C59.4609 57.9453 58.3086 59.2539 57.4883 60.9727C56.707 62.6523 56.3164 64.6836 56.3164 67.0664C56.3164 69.3711 56.707 71.4023 57.4883 73.1602C58.3086 74.8789 59.4805 76.2266 61.0039 77.2031C62.5273 78.1797 64.3633 78.668 66.5117 78.668C68.6602 78.668 70.4766 78.1797 71.9609 77.2031C73.4844 76.2266 74.6367 74.8789 75.418 73.1602C76.2383 71.4023 76.6484 69.3711 76.6484 67.0664Z" fill="#CFE6DB"/>
<path fill-rule="evenodd" clip-rule="evenodd" d="M97.3016 250.275C98.9174 248.659 100.785 247.472 102.577 246.921C105.007 246.174 130.872 246.063 310.752 246.028C514.199 245.989 521.483 245.657 523.668 248.833C523.956 249.252 524.156 249.733 524.705 250.283C525.386 250.963 525.959 251.476 526.441 252.063C529.141 255.351 528.999 260.973 528.999 311.489C528.999 362.006 529.141 367.628 526.441 370.915C525.959 371.502 525.386 372.015 524.705 372.696C524.156 373.245 523.956 373.725 523.667 374.144C521.479 377.32 514.203 376.99 311 376.99C107.797 376.99 100.521 377.32 98.3327 374.144C98.0441 373.725 97.844 373.245 97.2947 372.696C96.6139 372.015 96.0409 371.502 95.5586 370.915C92.8587 367.628 93.0013 362.006 93.0013 311.489C93.0013 260.979 92.8579 255.352 95.5598 252.062C96.0435 251.473 96.6183 250.959 97.3016 250.275ZM524.941 255.937C524.11 253.736 521.631 251.183 519.395 250.227C516.672 249.061 105.09 249.084 102.48 250.25C100.339 251.206 97.8662 253.8 97.0591 255.937C96.6433 257.038 96.4479 274.795 96.4479 311.545C96.4479 356.112 96.5858 365.859 97.2389 367.385C98.1954 369.621 100.747 372.1 102.948 372.931C104.079 373.36 166.558 373.543 311.056 373.543C485.116 373.543 517.837 373.419 519.395 372.752C521.631 371.795 524.11 369.243 524.941 367.042C525.794 364.784 525.794 258.195 524.941 255.937Z" fill="#CBCBCB"/>
<path fill-rule="evenodd" clip-rule="evenodd" d="M206.111 291.378C205.902 291.586 205.732 300.65 205.732 311.52V331.283H208.004H210.275V311.142V291H208.382C207.341 291 206.318 291.17 206.111 291.378ZM177.719 293.01C170.108 295.799 166.035 304.685 167.195 315.964C168.226 325.969 174.48 331.977 183.865 331.977C190.865 331.977 197.06 328.047 198.754 322.532L199.378 320.503L197.017 320.508C194.861 320.512 194.545 320.708 193.364 322.773C190.33 328.081 181.677 329.367 176.767 325.24C171.509 320.821 170.223 308.855 174.261 301.937C178.405 294.839 189.448 294.847 193.237 301.951C194.541 304.397 194.83 304.614 196.786 304.615C198.552 304.617 198.916 304.419 198.916 303.459C198.916 299.966 194.008 294.593 189.377 293.016C186.213 291.94 180.649 291.936 177.719 293.01ZM369.305 292.973C361.694 295.433 357.553 303.055 358.067 313.658C358.489 322.337 361.217 327.191 367.375 330.22C370.517 331.765 371.595 332 375.529 332C379.299 332 380.59 331.743 383.189 330.473C389.677 327.301 392.753 321.489 392.819 312.276C392.884 303.133 390.135 297.472 384.011 294.142C381.492 292.773 380.171 292.455 376.411 292.316C373.535 292.21 370.921 292.451 369.305 292.973ZM400.543 311.981V331.283H402.815H405.087V323.057V314.83H413.606H422.125V312.56V310.291H413.606H405.087V303.766V297.241H414.492H423.898L423.721 295.113L423.545 292.986L412.044 292.832L400.543 292.679V311.981ZM430.645 311.981V331.283H432.917H435.189V323.057V314.83H443.708H452.227V312.56V310.291H443.708H435.189V303.766V297.241H444.594H454L453.823 295.113L453.647 292.986L442.146 292.832L430.645 292.679V311.981ZM278.431 298.66V302.347H276.159C273.949 302.347 273.887 302.4 273.887 304.299C273.887 306.144 274.003 306.26 276.017 306.427L278.147 306.603L278.437 317.099C278.596 322.872 278.946 328.052 279.215 328.609C280.001 330.238 282.68 331.283 286.07 331.283H289.222V329.298C289.222 327.407 289.127 327.312 287.234 327.312C286.004 327.312 284.814 326.879 284.111 326.177C283.067 325.134 282.975 324.286 282.975 315.681V306.319H286.098H289.222V304.333V302.347H286.098H282.975V298.66V294.972H280.703H278.431V298.66ZM382.278 298.598C388.396 302.833 390.003 314.94 385.423 322.287C380.527 330.139 369.025 329.42 364.721 320.992C361.532 314.747 362.799 303.742 367.18 299.642C369.758 297.23 371.655 296.61 375.895 296.795C379.241 296.941 380.329 297.248 382.278 298.598ZM218.227 313.146C218.227 324.568 218.606 326.68 221.134 329.369C224.158 332.584 231.082 332.493 234.742 329.19L236.97 327.18V329.232C236.97 331.247 237.01 331.283 239.242 331.283H241.513V316.815V302.347H239.242H236.97V312.011C236.97 322.452 236.519 324.664 234.065 326.259C231.86 327.694 228.76 328.024 226.472 327.068C223.227 325.715 222.771 323.891 222.771 312.295V302.347H220.499H218.227V313.146ZM254.698 302.723C252.568 303.176 249.046 306.935 248.619 309.211C248.134 311.793 249.404 314.959 251.466 316.309C252.306 316.859 255.166 317.888 257.821 318.596C263.143 320.016 265.076 321.029 265.491 322.616C266.86 327.845 255.537 330.016 252.869 325.037C252.422 324.201 251.679 323.908 250.013 323.908C247.542 323.908 247.347 324.298 248.604 326.728C249.798 329.034 252.343 330.665 255.917 331.414C265.212 333.362 273.394 326.137 269.366 319.538C267.993 317.288 266.23 316.357 260.629 314.924C255.019 313.488 253.441 312.473 253.441 310.3C253.441 305.882 261.454 304.42 264.537 308.276C265.404 309.36 266.224 309.723 267.803 309.723C270.2 309.723 270.219 309.686 269.057 307.256C267.589 304.185 264.662 302.659 260.023 302.545C257.808 302.491 255.412 302.571 254.698 302.723ZM300.855 303.108C298.777 304.049 295.61 307.547 294.557 310.065C292.462 315.073 293.15 322.672 296.062 326.688C298.469 330.007 301.665 331.483 306.545 331.529C311.235 331.574 314.756 329.965 316.888 326.802C318.63 324.219 318.544 323.908 316.09 323.908C314.607 323.908 313.541 324.338 312.461 325.371C309.64 328.072 303.824 328.237 300.929 325.699C299.594 324.529 298.31 321.572 298.31 319.67V318.234H308.598H318.887L318.495 314.971C317.905 310.064 315.909 306.139 313.036 304.239C311.055 302.93 309.902 302.616 306.596 302.488C304.085 302.391 301.924 302.625 300.855 303.108ZM325.004 316.781V331.283H327.276H329.548L329.556 321.496C329.562 314.858 329.79 311.27 330.266 310.345C331.463 308.019 333.683 306.788 336.853 306.691L339.77 306.603L339.77 304.475L339.771 302.347H337.14C334.125 302.347 330.981 303.991 330.305 305.922C329.934 306.979 329.821 306.823 329.565 304.901C329.279 302.751 329.151 302.622 327.134 302.455L325.004 302.279V316.781ZM310.129 307.469C312.008 308.613 313.645 311.503 313.645 313.677C313.645 314.779 313.306 314.83 305.977 314.83C298.389 314.83 298.31 314.817 298.31 313.544C298.31 311.627 300.073 308.714 302.001 307.447C304.214 305.992 307.721 306.001 310.129 307.469Z" fill="black"/>
</svg>
