<svg width="622" height="622" viewBox="0 0 622 622" fill="none" xmlns="http://www.w3.org/2000/svg">
<path d="M81.3945 42.8086H83.8555V56.2852H82.8594C78.4062 56.2852 74.4414 56.9492 70.9648 58.2773C67.4883 59.6055 64.5391 61.5 62.1172 63.9609C59.7344 66.3828 57.8984 69.3125 56.6094 72.75C55.3594 76.1875 54.7344 80.0352 54.7344 84.293V98.4727C54.7344 101.52 55.0273 104.215 55.6133 106.559C56.2383 108.863 57.1172 110.797 58.25 112.359C59.4219 113.883 60.7891 115.035 62.3516 115.816C63.9141 116.559 65.6719 116.93 67.625 116.93C69.4609 116.93 71.1211 116.539 72.6055 115.758C74.1289 114.977 75.418 113.883 76.4727 112.477C77.5664 111.031 78.3867 109.352 78.9336 107.438C79.5195 105.484 79.8125 103.355 79.8125 101.051C79.8125 98.7461 79.5195 96.6172 78.9336 94.6641C78.3867 92.7109 77.5664 91.0312 76.4727 89.625C75.3789 88.1797 74.0508 87.0664 72.4883 86.2852C70.9258 85.5039 69.168 85.1133 67.2148 85.1133C64.5586 85.1133 62.2148 85.7383 60.1836 86.9883C58.1914 88.1992 56.6289 89.7617 55.4961 91.6758C54.3633 93.5898 53.7578 95.6016 53.6797 97.7109L48.582 94.4297C48.6992 91.4219 49.3242 88.5703 50.457 85.875C51.6289 83.1797 53.2305 80.7969 55.2617 78.7266C57.332 76.6172 59.8125 74.9766 62.7031 73.8047C65.5938 72.5938 68.8555 71.9883 72.4883 71.9883C76.4727 71.9883 79.9688 72.75 82.9766 74.2734C86.0234 75.7969 88.5625 77.8867 90.5938 80.543C92.625 83.1992 94.1484 86.2656 95.1641 89.7422C96.1797 93.2188 96.6875 96.9297 96.6875 100.875C96.6875 105.016 96.0039 108.863 94.6367 112.418C93.3086 115.973 91.375 119.078 88.8359 121.734C86.3359 124.391 83.3281 126.461 79.8125 127.945C76.2969 129.43 72.3516 130.172 67.9766 130.172C63.4453 130.172 59.3242 129.352 55.6133 127.711C51.9414 126.031 48.7773 123.688 46.1211 120.68C43.4648 117.672 41.4141 114.098 39.9688 109.957C38.5625 105.816 37.8594 101.285 37.8594 96.3633V89.8008C37.8594 82.9258 38.8555 76.6367 40.8477 70.9336C42.8789 65.1914 45.7891 60.2305 49.5781 56.0508C53.3672 51.832 57.9375 48.5703 63.2891 46.2656C68.6406 43.9609 74.6758 42.8086 81.3945 42.8086Z" fill="#CFE6DB"/>
<path fill-rule="evenodd" clip-rule="evenodd" d="M185.186 180.832C181.596 181.942 177.854 184.336 174.617 187.592C165.603 196.665 166.003 190.942 166.003 310.974C166.003 430.982 165.606 425.287 174.604 434.34C183.666 443.462 176.337 442.996 311 442.996C445.663 442.996 438.334 443.462 447.397 434.34C456.394 425.287 455.997 430.982 455.997 310.974C455.997 190.966 456.394 196.661 447.397 187.607C438.324 178.477 445.746 178.942 310.503 179.033C208.053 179.101 189.941 179.362 185.186 180.832ZM436.072 187.133C440.48 188.808 445.592 193.806 447.508 198.313C449.861 203.847 449.861 418.101 447.508 423.635C445.592 428.142 440.48 433.14 436.072 434.815C433.858 435.657 394.281 436.047 311 436.047C227.719 436.047 188.142 435.657 185.928 434.815C181.52 433.14 176.408 428.142 174.492 423.635C173.183 420.559 172.907 400.915 172.907 311.086C172.907 237.015 173.299 201.223 174.132 199.004C175.749 194.697 180.701 189.469 184.99 187.541C187.803 186.279 211.107 185.983 310.638 185.946C394.281 185.914 433.854 186.29 436.072 187.133ZM308.929 274.147C307.923 275.159 307.548 284.021 307.548 306.769V338.001L298.852 329.516C290.723 321.584 290.031 321.157 288.231 322.968C286.432 324.78 287.112 325.716 298.678 337.338L311.048 349.77L323.386 337.22C335.094 325.311 335.608 324.586 333.475 323.017C331.396 321.487 330.594 321.994 322.84 329.747L314.452 338.131V306.834C314.452 276.703 314.053 272.757 311 272.757C310.62 272.757 309.688 273.382 308.929 274.147ZM256.238 338.179C255.842 339.766 255.705 345.202 255.933 350.261C256.38 360.163 258.436 364.573 263.929 367.413C265.983 368.477 278.098 368.845 311 368.845C343.902 368.845 356.017 368.477 358.071 367.413C363.564 364.573 365.62 360.163 366.067 350.261C366.574 339.025 365.78 335.294 362.886 335.294C359.906 335.294 359.332 337.458 359.332 348.707C359.332 364.343 363.196 363.229 310.292 362.838C258.39 362.453 262.668 363.742 262.668 348.486C262.668 343.245 262.353 338.133 261.969 337.126C260.856 334.208 257.054 334.906 256.238 338.179Z" fill="#198754"/>
</svg>
