<svg width="622" height="622" viewBox="0 0 622 622" fill="none" xmlns="http://www.w3.org/2000/svg">
<path d="M55.1445 79.0195H64.168C67.0586 79.0195 69.4414 78.5312 71.3164 77.5547C73.1914 76.5391 74.5781 75.1328 75.4766 73.3359C76.4141 71.5 76.8828 69.3711 76.8828 66.9492C76.8828 64.7617 76.4531 62.8281 75.5938 61.1484C74.7734 59.4297 73.5039 58.1016 71.7852 57.1641C70.0664 56.1875 67.8984 55.6992 65.2812 55.6992C63.2109 55.6992 61.2969 56.1094 59.5391 56.9297C57.7812 57.75 56.375 58.9023 55.3203 60.3867C54.2656 61.8711 53.7383 63.668 53.7383 65.7773H36.8047C36.8047 61.0898 38.0547 57.0078 40.5547 53.5312C43.0938 50.0547 46.4922 47.3398 50.75 45.3867C55.0078 43.4336 59.6953 42.457 64.8125 42.457C70.5938 42.457 75.6523 43.3945 79.9883 45.2695C84.3242 47.1055 87.7031 49.8203 90.125 53.4141C92.5469 57.0078 93.7578 61.4609 93.7578 66.7734C93.7578 69.4688 93.1328 72.0859 91.8828 74.625C90.6328 77.125 88.8359 79.3906 86.4922 81.4219C84.1875 83.4141 81.375 85.0156 78.0547 86.2266C74.7344 87.3984 71.0039 87.9844 66.8633 87.9844H55.1445V79.0195ZM55.1445 91.8516V83.1211H66.8633C71.5117 83.1211 75.5938 83.6484 79.1094 84.7031C82.625 85.7578 85.5742 87.2812 87.957 89.2734C90.3398 91.2266 92.1367 93.5508 93.3477 96.2461C94.5586 98.9023 95.1641 101.852 95.1641 105.094C95.1641 109.078 94.4023 112.633 92.8789 115.758C91.3555 118.844 89.207 121.461 86.4336 123.609C83.6992 125.758 80.4961 127.398 76.8242 128.531C73.1523 129.625 69.1484 130.172 64.8125 130.172C61.2188 130.172 57.6836 129.684 54.207 128.707C50.7695 127.691 47.6445 126.188 44.832 124.195C42.0586 122.164 39.832 119.625 38.1523 116.578C36.5117 113.492 35.6914 109.84 35.6914 105.621H52.625C52.625 107.809 53.1719 109.762 54.2656 111.48C55.3594 113.199 56.8633 114.547 58.7773 115.523C60.7305 116.5 62.8984 116.988 65.2812 116.988C67.9766 116.988 70.2812 116.5 72.1953 115.523C74.1484 114.508 75.6328 113.102 76.6484 111.305C77.7031 109.469 78.2305 107.34 78.2305 104.918C78.2305 101.793 77.6641 99.293 76.5312 97.418C75.3984 95.5039 73.7773 94.0977 71.668 93.1992C69.5586 92.3008 67.0586 91.8516 64.168 91.8516H55.1445Z" fill="#CFE6DB"/>
<path fill-rule="evenodd" clip-rule="evenodd" d="M208.198 88.1239C206.198 90.1274 206 91.793 206 106.593C206 125.331 206.818 127.754 213.143 127.754C219.418 127.754 220.285 125.271 220.285 107.292C220.285 93.2086 220.068 91.4462 218.007 88.8229C215.271 85.3365 211.265 85.0514 208.198 88.1239ZM159.849 103.536C155.775 107.616 156.981 109.914 170.066 123.023C176.894 129.863 183.255 135.46 184.202 135.46C185.15 135.46 187.228 134.433 188.82 133.178C194.134 128.99 192.944 126.343 179.848 113.223C167.098 100.45 164.287 99.0893 159.849 103.536ZM273.03 116.701C249.991 121.637 228.73 133.355 212.044 150.314C198.408 164.172 186.522 185.1 181.887 203.409C177.703 219.937 177.286 231.543 177.718 319.389C178.113 399.76 178.233 403.956 180.409 413.421C186.141 438.358 197.408 458.412 215.202 475.345C230.023 489.448 248.115 499.572 268.33 505.075C278.822 507.931 279.832 508 311.49 508C343.148 508 344.157 507.931 354.649 505.075C400.352 492.634 433.646 457.221 443.017 411.079C444.833 402.134 445 393.724 445 311.044C445 213.055 445.054 214.045 438.723 195.507C424.897 155.016 389.515 124.197 347.74 116.258C334.139 113.673 285.822 113.959 273.03 116.701ZM304.645 140.427L304.944 152.523L248.329 209.212L191.715 265.901V251.598V237.295L246.383 182.505C277.824 150.994 301.751 127.845 302.699 128.023C304.023 128.27 304.406 130.708 304.645 140.427ZM336.792 128.9C355.046 131.146 368.843 136.179 383.535 145.948C405.666 160.664 420.799 181.965 427.692 208.103C430.139 217.379 430.515 221.429 430.989 243.617L431.524 268.661H385.888H340.254L339.864 240.865C339.479 213.316 339.449 213.021 336.58 207.565C333.151 201.049 330.192 198.1 323.546 194.579L318.632 191.977L318.34 161.256C318.179 144.36 318.287 129.909 318.58 129.144C319.229 127.449 324.435 127.38 336.792 128.9ZM236.491 172.611C213.727 195.417 194.855 213.829 194.553 213.526C193.695 212.667 196.847 201.594 200.414 192.928C209.457 170.956 228.744 150.421 250.504 139.596C260.269 134.738 275.897 129.596 277.379 130.754C277.655 130.97 259.256 149.806 236.491 172.611ZM145.077 151.24C143.77 152.197 143 154.103 143 156.376C143 162.522 144.881 163.072 164.723 162.732L182.294 162.43L183.983 159.403C185.502 156.68 185.502 156.072 183.983 153.349L182.294 150.321L164.723 150.02C151.13 149.787 146.683 150.063 145.077 151.24ZM304.897 183.26V192.533L301.21 193.751C292.1 196.764 284.803 206.768 283.403 218.169L282.677 224.077L260.557 246.369L238.436 268.661H224.147H209.856L257.097 221.325C283.079 195.29 304.464 173.989 304.618 173.989C304.771 173.989 304.897 178.161 304.897 183.26ZM318.973 208.144C325.345 212.035 325.775 214.555 325.773 247.985C325.772 280.882 325.408 283.014 318.994 287.722C315.119 290.567 307.86 290.567 303.986 287.722C297.572 283.014 297.208 280.882 297.207 247.985C297.205 214.555 297.634 212.035 304.007 208.144C306.007 206.922 309.375 205.921 311.49 205.921C313.605 205.921 316.973 206.922 318.973 208.144ZM282.92 256.552V268.661H270.576H258.233L270.283 256.552C276.91 249.892 282.465 244.443 282.626 244.443C282.788 244.443 282.92 249.892 282.92 256.552ZM285.989 287.651C288.34 292.957 295.65 300.047 301.136 302.344C305.881 304.33 317.098 304.33 321.843 302.344C327.33 300.047 334.639 292.957 336.991 287.651L339.064 282.972H385.239H431.414L430.973 343.793C430.592 396.574 430.286 405.56 428.663 411.77C418.081 452.251 391.11 480.092 351.598 491.318C345.179 493.142 339.428 493.591 316.867 494.028C286.177 494.623 278.879 493.86 262.853 488.379C236.314 479.306 214.471 459.58 202.183 433.592C192.5 413.114 192.488 413.011 191.998 343.793L191.566 282.972H237.741H283.915L285.989 287.651Z" fill="#198754"/>
</svg>
