<svg width="622" height="622" viewBox="0 0 622 622" fill="none" xmlns="http://www.w3.org/2000/svg">
<path d="M96.2188 115.816V129H37.8594V117.75L65.457 88.1602C68.2305 85.0742 70.418 82.3594 72.0195 80.0156C73.6211 77.6328 74.7734 75.5039 75.4766 73.6289C76.2188 71.7148 76.5898 69.8984 76.5898 68.1797C76.5898 65.6016 76.1602 63.3945 75.3008 61.5586C74.4414 59.6836 73.1719 58.2383 71.4922 57.2227C69.8516 56.207 67.8203 55.6992 65.3984 55.6992C62.8203 55.6992 60.5938 56.3242 58.7188 57.5742C56.8828 58.8242 55.4766 60.5625 54.5 62.7891C53.5625 65.0156 53.0938 67.5352 53.0938 70.3477H36.1602C36.1602 65.2695 37.3711 60.6211 39.793 56.4023C42.2148 52.1445 45.6328 48.7656 50.0469 46.2656C54.4609 43.7266 59.6953 42.457 65.75 42.457C71.7266 42.457 76.7656 43.4336 80.8672 45.3867C85.0078 47.3008 88.1328 50.0742 90.2422 53.707C92.3906 57.3008 93.4648 61.5977 93.4648 66.5977C93.4648 69.4102 93.0156 72.1641 92.1172 74.8594C91.2188 77.5156 89.9297 80.1719 88.25 82.8281C86.6094 85.4453 84.6172 88.1016 82.2734 90.7969C79.9297 93.4922 77.332 96.2852 74.4805 99.1758L59.6562 115.816H96.2188Z" fill="#CFE6DB"/>
<path fill-rule="evenodd" clip-rule="evenodd" d="M276.195 116.229C252.05 120.77 232.151 131.081 214.317 148.292C193.105 168.765 180.781 194.263 178.022 223.382C176.561 238.8 176.561 384.44 178.022 399.858C180.809 429.288 193.219 454.728 214.917 475.496C230.636 490.541 246.17 499.162 269.199 505.625C276.76 507.745 280.332 507.951 310.45 507.994C341.679 508.038 343.944 507.903 353.243 505.442C374.968 499.695 391.297 490.606 407.149 475.432C425.887 457.499 436.769 437.895 442.496 411.756C444.403 403.049 444.544 396.123 444.544 311.62C444.544 227.118 444.403 220.191 442.496 211.484C436.769 185.346 425.887 165.741 407.149 147.808C391.475 132.805 375.221 123.693 353.837 117.918C345.386 115.635 341.723 115.372 314.297 115.075C292.376 114.837 281.907 115.154 276.195 116.229ZM304.405 141.309V153.663L248.639 209.533C217.967 240.262 192.495 265.404 192.033 265.404C191.572 265.404 191.195 259.092 191.195 251.378V237.352L245.323 183.154C284.742 143.684 300.124 128.955 301.928 128.955C304.351 128.955 304.405 129.224 304.405 141.309ZM354.193 132.702C371.428 137.827 384.472 145.472 397.899 158.314C412.853 172.617 422.673 189.659 427.729 210.082C429.812 218.497 430.127 222.917 430.187 244.496L430.256 269.255L385.012 269.542L339.769 269.829L339.398 241.482L339.028 213.135L335.73 207.167C332.425 201.187 327.189 196.489 320.937 193.897L317.595 192.51V160.585V128.658L331.059 129.242C341.069 129.677 347.004 130.564 354.193 132.702ZM235.752 172.928C212.81 195.902 193.856 214.516 193.632 214.291C191.721 212.378 203.264 184.249 209.956 174.51C222.333 156.5 242.701 141.197 263.933 133.956C280.462 128.32 280.892 127.725 235.752 172.928ZM304.405 183.841C304.405 192.462 304.387 192.518 301.063 193.897C291.112 198.023 284.379 207.035 282.99 218.087L282.229 224.139L259.529 246.972L236.829 269.805H223.354C215.944 269.805 209.88 269.435 209.88 268.984C209.88 267.906 302.498 175.171 303.576 175.171C304.033 175.171 304.405 179.072 304.405 183.841ZM317.501 207.91C324.894 211.699 325.289 213.746 325.289 248.347C325.289 282.904 324.939 284.722 317.527 288.702C312.789 291.245 309.211 291.245 304.473 288.702C297.061 284.722 296.711 282.904 296.711 248.347C296.711 220.555 296.911 217.123 298.728 213.668C300.901 209.536 306.573 205.986 311 205.986C312.511 205.986 315.437 206.852 317.501 207.91ZM282.423 257.701V269.805H270.076H257.73L269.783 257.701C276.411 251.043 281.968 245.596 282.129 245.596C282.291 245.596 282.423 251.043 282.423 257.701ZM126.152 283.12C116.888 290.443 107.905 297.747 106.189 299.351C99.922 305.206 98.3942 311.82 101.698 318.791C103.641 322.891 137.319 350.419 143.612 353.052C151.263 356.252 160.121 351.499 162.501 342.917C164.041 337.367 164.109 286.12 162.584 280.624C161.957 278.361 159.771 275.099 157.607 273.197C154.421 270.397 152.81 269.805 148.371 269.805C143.157 269.805 142.478 270.212 126.152 283.12ZM464.393 273.197C462.229 275.099 460.043 278.361 459.416 280.624C457.891 286.12 457.959 337.367 459.499 342.917C461.879 351.499 470.737 356.252 478.388 353.052C484.681 350.419 518.359 322.891 520.302 318.791C523.606 311.82 522.078 305.206 515.811 299.351C514.095 297.747 505.112 290.443 495.848 283.12C479.522 270.212 478.843 269.805 473.629 269.805C469.19 269.805 467.579 270.397 464.393 273.197ZM285.099 286.861C291.464 302.112 308.603 308.58 323.419 301.323C329.695 298.249 334.138 293.48 336.905 286.849L338.518 282.986L384.387 283.273L430.256 283.56L430.212 344.082L430.168 404.603L427.247 415.352C421.914 434.98 412.092 451.447 397.364 465.453C384.428 477.755 371.395 485.354 354.193 490.625C344.937 493.461 343.266 493.606 315.091 494.03C290.718 494.396 284.109 494.158 276.639 492.642C236.48 484.496 204.91 454.244 194.288 413.73C192.002 405.013 191.876 401.948 191.475 345.332C191.245 312.731 191.319 285.373 191.641 284.535C192.126 283.27 199.985 283.01 237.858 283.01H283.492L285.099 286.861ZM149.428 311.62C149.428 330.563 149.076 338.029 148.183 338.029C146.232 338.029 114.27 313.432 114.262 311.926C114.255 310.369 145.996 285.313 148.054 285.251C149.116 285.219 149.428 291.204 149.428 311.62ZM491.532 297.938C500.449 304.919 507.741 311.224 507.738 311.95C507.73 313.44 475.749 338.029 473.817 338.029C472.924 338.029 472.572 330.563 472.572 311.62C472.572 291.217 472.884 285.214 473.946 285.227C474.702 285.237 482.615 290.956 491.532 297.938Z" fill="#198754"/>
</svg>
