<svg width="622" height="634" viewBox="0 0 622 634" fill="none" xmlns="http://www.w3.org/2000/svg">
<circle cx="311" cy="323" r="311" fill="#CFE6DB"/>
<path fill-rule="evenodd" clip-rule="evenodd" d="M301.644 113.955C296.478 116.305 292.87 120.216 284.612 132.422L278.565 141.359L267.444 144.123C226.446 154.307 193.717 186.324 181.861 227.847C177.117 244.46 176.666 255.798 177.153 346.392C177.586 426.952 177.705 431.016 179.882 439.967C185.975 465.034 197.073 484.62 214.656 501.343C229.486 515.447 247.588 525.572 267.815 531.075C278.313 533.931 279.324 534 311 534C342.676 534 343.687 533.931 354.185 531.075C398.916 518.906 431.012 485.651 442.118 439.967C444.295 431.016 444.414 426.952 444.847 346.392C445.334 255.798 444.883 244.46 440.139 227.847C427.882 184.92 392.67 151.68 350.032 142.786L343.435 141.41L337.388 132.448C334.062 127.518 329.861 121.791 328.052 119.721C321.569 112.308 310.555 109.902 301.644 113.955ZM316.389 128.14C317.672 129.2 324.894 138.984 332.439 149.883C347.614 171.804 348.326 173.779 342.97 179.141C339.958 182.156 339.206 182.359 331.046 182.359C319.684 182.359 318.347 183.644 317.768 195.116L317.356 203.276H311H304.644L304.232 195.116C303.653 183.644 302.316 182.359 290.954 182.359C282.794 182.359 282.042 182.156 279.03 179.141C273.674 173.779 274.386 171.804 289.561 149.883C297.106 138.984 304.328 129.2 305.611 128.14C306.896 127.08 309.32 126.213 311 126.213C312.68 126.213 315.104 127.08 316.389 128.14ZM264.067 162.818C261.638 167.367 261.593 178.345 263.983 182.932C268.053 190.741 275.059 195.423 284.065 196.353L289.866 196.953L290.345 203.581C290.763 209.365 291.276 210.613 294.377 213.387C296.331 215.136 299.386 216.858 301.166 217.214C304.341 217.851 304.403 217.996 304.403 224.862V231.862L299.081 234.562C296.155 236.047 292.135 239.115 290.148 241.381C283.682 248.755 283.089 251.326 282.628 274.008L282.208 294.65H236.552H190.896L191.431 269.604C191.905 247.415 192.281 243.365 194.73 234.089C198.174 221.031 202.458 211.487 209.682 200.769C220.542 184.652 238.211 169.999 255.747 162.563C265.656 158.361 266.434 158.385 264.067 162.818ZM365.853 162.492C383.374 169.727 401.389 184.552 412.258 200.679C419.371 211.233 423.767 221.034 427.247 234.101C429.728 243.408 430.093 247.317 430.569 269.604L431.104 294.65H385.448H339.792L339.372 274.008C338.911 251.326 338.318 248.755 331.852 241.381C329.865 239.115 325.845 236.047 322.919 234.562L317.597 231.862V224.862C317.597 217.996 317.659 217.851 320.834 217.214C322.614 216.858 325.669 215.136 327.623 213.387C330.724 210.613 331.237 209.365 331.655 203.581L332.134 196.953L337.935 196.353C346.941 195.423 353.947 190.741 358.017 182.932C360.407 178.345 360.362 167.367 357.933 162.818C356.882 160.85 356.462 159.24 357 159.24C357.536 159.24 361.521 160.703 365.853 162.492ZM319.231 248.597C324.703 252.907 325.293 256.131 325.289 281.679C325.286 302.96 325.089 305.431 323.143 308.627C320.21 313.442 316.143 315.867 311 315.867C305.857 315.867 301.79 313.442 298.857 308.627C296.911 305.431 296.714 302.96 296.711 281.679C296.707 256.131 297.297 252.907 302.769 248.597C306.934 245.317 315.066 245.317 319.231 248.597ZM285.484 313.64C287.837 318.946 295.151 326.037 300.641 328.334C304.964 330.142 314.246 330.34 319.982 328.744C325.379 327.243 334.521 318.841 336.706 313.374L338.47 308.961H384.724H430.979L430.58 369.786C430.191 429.124 430.119 430.839 427.657 439.967C418.116 475.34 392.763 503.085 359.666 514.37C344.631 519.497 337.928 520.316 311 520.316C284.072 520.316 277.369 519.497 262.334 514.37C235.801 505.323 213.927 485.583 201.629 459.589C191.914 439.055 191.909 439.008 191.436 369.786L191.021 308.961H237.215H283.409L285.484 313.64ZM298.103 345.822C293.228 347.944 290.118 353.413 290.114 359.878C290.111 364.327 289.79 365.107 287.964 365.107C286.785 365.107 283.24 365.661 280.086 366.338C275.567 367.309 273.259 368.664 269.197 372.73C261.372 380.564 259.716 390.237 264.564 399.785C266.872 404.329 289.819 437.358 293.912 442.025C302.951 452.333 319.049 452.333 328.088 442.025C332.181 437.358 355.128 404.329 357.436 399.785C362.284 390.237 360.628 380.564 352.803 372.73C348.741 368.664 346.433 367.309 341.914 366.338C338.76 365.661 335.215 365.107 334.036 365.107C332.21 365.107 331.889 364.327 331.886 359.878C331.882 353.291 328.735 347.9 323.655 345.775C318.738 343.718 302.869 343.747 298.103 345.822ZM317.597 366.059C317.597 372.038 318.073 374.223 319.876 376.518C321.998 379.22 322.757 379.418 330.956 379.418C339.216 379.418 339.953 379.615 342.97 382.636C348.375 388.049 347.653 390.119 332.922 411.427C318.202 432.719 315.618 435.564 311 435.564C306.366 435.564 303.758 432.686 289.072 411.367C274.381 390.042 273.669 388.004 279.03 382.636C282.047 379.615 282.784 379.418 291.044 379.418C299.243 379.418 300.002 379.22 302.124 376.518C303.927 374.223 304.403 372.038 304.403 366.059V358.501H311H317.597V366.059Z" fill="white"/>
<path d="M46.9922 26.5117V112H30.1172V45.9648L9.84375 52.4102V39.1094L45.1758 26.5117H46.9922Z" fill="#CFE6DB"/>
</svg>
