<svg width="622" height="622" viewBox="0 0 622 622" fill="none" xmlns="http://www.w3.org/2000/svg">
<path fill-rule="evenodd" clip-rule="evenodd" d="M301.644 101.955C296.478 104.305 292.87 108.216 284.612 120.422L278.565 129.359L267.444 132.123C226.446 142.307 193.717 174.324 181.861 215.847C177.117 232.46 176.666 243.798 177.153 334.392C177.586 414.952 177.705 419.016 179.882 427.967C185.975 453.034 197.073 472.62 214.656 489.343C229.486 503.447 247.588 513.572 267.815 519.075C278.313 521.931 279.324 522 311 522C342.676 522 343.687 521.931 354.185 519.075C398.916 506.906 431.012 473.651 442.118 427.967C444.295 419.016 444.414 414.952 444.847 334.392C445.334 243.798 444.883 232.46 440.139 215.847C427.882 172.92 392.67 139.68 350.032 130.786L343.435 129.41L337.388 120.448C334.062 115.518 329.861 109.791 328.052 107.721C321.569 100.308 310.555 97.9015 301.644 101.955ZM316.389 116.14C317.672 117.2 324.894 126.984 332.439 137.883C347.614 159.804 348.326 161.779 342.97 167.141C339.958 170.156 339.206 170.359 331.046 170.359C319.684 170.359 318.347 171.644 317.768 183.116L317.356 191.276H311H304.644L304.232 183.116C303.653 171.644 302.316 170.359 290.954 170.359C282.794 170.359 282.042 170.156 279.03 167.141C273.674 161.779 274.386 159.804 289.561 137.883C297.106 126.984 304.328 117.2 305.611 116.14C306.896 115.08 309.32 114.213 311 114.213C312.68 114.213 315.104 115.08 316.389 116.14ZM264.067 150.818C261.638 155.367 261.593 166.345 263.983 170.932C268.053 178.741 275.059 183.423 284.065 184.353L289.866 184.953L290.345 191.581C290.763 197.365 291.276 198.613 294.377 201.387C296.331 203.136 299.386 204.858 301.166 205.214C304.341 205.851 304.403 205.996 304.403 212.862V219.862L299.081 222.562C296.155 224.047 292.135 227.115 290.148 229.381C283.682 236.755 283.089 239.326 282.628 262.008L282.208 282.65H236.552H190.896L191.431 257.604C191.905 235.415 192.281 231.365 194.73 222.089C198.174 209.031 202.458 199.487 209.682 188.769C220.542 172.652 238.211 157.999 255.747 150.563C265.656 146.361 266.434 146.385 264.067 150.818ZM365.853 150.492C383.374 157.727 401.389 172.552 412.258 188.679C419.371 199.233 423.767 209.034 427.247 222.101C429.728 231.408 430.093 235.317 430.569 257.604L431.104 282.65H385.448H339.792L339.372 262.008C338.911 239.326 338.318 236.755 331.852 229.381C329.865 227.115 325.845 224.047 322.919 222.562L317.597 219.862V212.862C317.597 205.996 317.659 205.851 320.834 205.214C322.614 204.858 325.669 203.136 327.623 201.387C330.724 198.613 331.237 197.365 331.655 191.581L332.134 184.953L337.935 184.353C346.941 183.423 353.947 178.741 358.017 170.932C360.407 166.345 360.362 155.367 357.933 150.818C356.882 148.85 356.462 147.24 357 147.24C357.536 147.24 361.521 148.703 365.853 150.492ZM319.231 236.597C324.703 240.907 325.293 244.131 325.289 269.679C325.286 290.96 325.089 293.431 323.143 296.627C320.21 301.442 316.143 303.867 311 303.867C305.857 303.867 301.79 301.442 298.857 296.627C296.911 293.431 296.714 290.96 296.711 269.679C296.707 244.131 297.297 240.907 302.769 236.597C306.934 233.317 315.066 233.317 319.231 236.597ZM285.484 301.64C287.837 306.946 295.151 314.037 300.641 316.334C304.964 318.142 314.246 318.34 319.982 316.744C325.379 315.243 334.521 306.841 336.706 301.374L338.47 296.961H384.724H430.979L430.58 357.786C430.191 417.124 430.119 418.839 427.657 427.967C418.116 463.34 392.763 491.085 359.666 502.37C344.631 507.497 337.928 508.316 311 508.316C284.072 508.316 277.369 507.497 262.334 502.37C235.801 493.323 213.927 473.583 201.629 447.589C191.914 427.055 191.909 427.008 191.436 357.786L191.021 296.961H237.215H283.409L285.484 301.64ZM298.103 333.822C293.228 335.944 290.118 341.413 290.114 347.878C290.111 352.327 289.79 353.107 287.964 353.107C286.785 353.107 283.24 353.661 280.086 354.338C275.567 355.309 273.259 356.664 269.197 360.73C261.372 368.564 259.716 378.237 264.564 387.785C266.872 392.329 289.819 425.358 293.912 430.025C302.951 440.333 319.049 440.333 328.088 430.025C332.181 425.358 355.128 392.329 357.436 387.785C362.284 378.237 360.628 368.564 352.803 360.73C348.741 356.664 346.433 355.309 341.914 354.338C338.76 353.661 335.215 353.107 334.036 353.107C332.21 353.107 331.889 352.327 331.886 347.878C331.882 341.291 328.735 335.9 323.655 333.775C318.738 331.718 302.869 331.747 298.103 333.822ZM317.597 354.059C317.597 360.038 318.073 362.223 319.876 364.518C321.998 367.22 322.757 367.418 330.956 367.418C339.216 367.418 339.953 367.615 342.97 370.636C348.375 376.049 347.653 378.119 332.922 399.427C318.202 420.719 315.618 423.564 311 423.564C306.366 423.564 303.758 420.686 289.072 399.367C274.381 378.042 273.669 376.004 279.03 370.636C282.047 367.615 282.784 367.418 291.044 367.418C299.243 367.418 300.002 367.22 302.124 364.518C303.927 362.223 304.403 360.038 304.403 354.059V346.501H311H317.597V354.059Z" fill="#198754"/>
<path d="M78.9922 43.5117V129H62.1172V62.9648L41.8438 69.4102V56.1094L77.1758 43.5117H78.9922Z" fill="#CFE6DB"/>
</svg>
