<svg width="622" height="622" viewBox="0 0 622 622" fill="none" xmlns="http://www.w3.org/2000/svg">
<path d="M53.7383 90.1523L40.2617 86.9297L45.125 43.6875H93.0547V57.3398H59.0117L56.9023 76.2656C58.0352 75.6016 59.7539 74.8984 62.0586 74.1562C64.3633 73.375 66.9414 72.9844 69.793 72.9844C73.9336 72.9844 77.6055 73.6289 80.8086 74.918C84.0117 76.207 86.7266 78.082 88.9531 80.543C91.2188 83.0039 92.9375 86.0117 94.1094 89.5664C95.2812 93.1211 95.8672 97.1445 95.8672 101.637C95.8672 105.426 95.2812 109.039 94.1094 112.477C92.9375 115.875 91.1602 118.922 88.7773 121.617C86.3945 124.273 83.4062 126.363 79.8125 127.887C76.2188 129.41 71.9609 130.172 67.0391 130.172C63.3672 130.172 59.8125 129.625 56.375 128.531C52.9766 127.438 49.9102 125.816 47.1758 123.668C44.4805 121.52 42.3125 118.922 40.6719 115.875C39.0703 112.789 38.2305 109.273 38.1523 105.328H54.9102C55.1445 107.75 55.7695 109.84 56.7852 111.598C57.8398 113.316 59.2266 114.645 60.9453 115.582C62.6641 116.52 64.6758 116.988 66.9805 116.988C69.1289 116.988 70.9648 116.578 72.4883 115.758C74.0117 114.938 75.2422 113.805 76.1797 112.359C77.1172 110.875 77.8008 109.156 78.2305 107.203C78.6992 105.211 78.9336 103.062 78.9336 100.758C78.9336 98.4531 78.6602 96.3633 78.1133 94.4883C77.5664 92.6133 76.7266 90.9922 75.5938 89.625C74.4609 88.2578 73.0156 87.2031 71.2578 86.4609C69.5391 85.7188 67.5273 85.3477 65.2227 85.3477C62.0977 85.3477 59.6758 85.8359 57.957 86.8125C56.2773 87.7891 54.8711 88.9023 53.7383 90.1523Z" fill="#CFE6DB"/>
<path fill-rule="evenodd" clip-rule="evenodd" d="M184.318 180.832C180.703 181.942 176.936 184.336 173.677 187.592C164.601 196.665 165.003 190.942 165.003 310.974C165.003 430.982 164.603 425.287 173.663 434.34C182.788 443.462 175.408 442.996 311 442.996C446.592 442.996 439.212 443.462 448.337 434.34C457.397 425.287 456.997 430.982 456.997 310.974C456.997 190.966 457.397 196.661 448.337 187.607C439.202 178.477 446.676 178.942 310.499 179.033C207.343 179.101 189.106 179.362 184.318 180.832ZM436.934 187.133C441.373 188.808 446.52 193.806 448.45 198.313C450.819 203.847 450.819 418.101 448.45 423.635C446.52 428.142 441.373 433.14 436.934 434.815C434.705 435.657 394.856 436.047 311 436.047C227.144 436.047 187.295 435.657 185.066 434.815C180.627 433.14 175.48 428.142 173.55 423.635C172.233 420.559 171.955 400.915 171.955 311.086C171.955 237.015 172.349 201.223 173.188 199.004C174.816 194.697 179.803 189.469 184.121 187.541C186.953 186.279 210.418 185.983 310.635 185.946C394.856 185.914 434.701 186.29 436.934 187.133ZM306.365 267.35C303.258 268.388 301.628 270.03 299.394 274.38C295.591 281.783 293.623 283.004 288.724 280.996C279.496 277.215 273.028 278.96 269.592 286.158C267.78 289.958 267.795 290.562 269.858 296.628C272.504 304.409 271.885 305.797 263.978 309.816C259.443 312.12 257.991 313.597 256.862 317.054C254.557 324.102 256.906 329.377 263.958 332.996C271.365 336.797 272.586 338.765 270.577 343.661C266.794 352.884 268.54 359.348 275.743 362.782C279.545 364.593 280.148 364.578 286.218 362.517C294.003 359.872 295.392 360.49 299.413 368.393C301.719 372.926 303.196 374.377 306.655 375.506C313.707 377.81 318.985 375.462 322.606 368.414C326.409 361.01 328.377 359.79 333.276 361.798C342.504 365.579 348.972 363.834 352.408 356.635C354.22 352.835 354.205 352.232 352.142 346.166C349.496 338.385 350.115 336.996 358.022 332.978C362.557 330.673 364.009 329.196 365.138 325.74C367.443 318.691 365.094 313.416 358.042 309.797C350.635 305.997 349.414 304.029 351.423 299.133C355.206 289.91 353.46 283.445 346.257 280.011C342.455 278.2 341.852 278.215 335.782 280.277C328.024 282.912 326.516 282.267 322.872 274.748C319.255 267.284 313.834 264.855 306.365 267.35ZM317.527 278.485C321.929 287.654 327.717 289.907 336.956 286.048C344.166 283.037 349.753 288.165 346.375 294.692C343.962 299.357 344.115 306.642 346.693 309.823C347.842 311.241 351.101 313.514 353.935 314.873C358.579 317.1 359.086 317.743 359.086 321.397C359.086 325.051 358.579 325.693 353.935 327.92C344.761 332.32 342.506 338.105 346.367 347.339C349.38 354.545 344.249 360.129 337.719 356.753C333.051 354.341 325.763 354.494 322.58 357.071C321.161 358.219 318.887 361.476 317.527 364.309C315.299 368.95 314.656 369.457 311 369.457C307.344 369.457 306.701 368.95 304.473 364.309C300.071 355.14 294.283 352.886 285.044 356.745C277.834 359.756 272.247 354.628 275.625 348.101C278.038 343.436 277.885 336.152 275.307 332.971C274.158 331.552 270.899 329.28 268.065 327.92C263.421 325.693 262.914 325.051 262.914 321.397C262.914 317.743 263.421 317.1 268.065 314.873C277.239 310.474 279.494 304.689 275.633 295.454C272.62 288.249 277.751 282.665 284.281 286.04C291.697 289.872 301.58 287.049 303.521 280.544C305.235 274.798 307.507 272.605 311.362 272.978C314.451 273.277 315.46 274.179 317.527 278.485ZM301.151 302.189C292.719 306.49 289.555 311.731 289.602 321.317C289.632 327.391 290.203 329.769 292.437 333.112C299.047 343.003 309.902 345.927 320.54 340.682C332.163 334.95 336.04 323.498 330.296 311.862C324.553 300.232 312.7 296.298 301.151 302.189ZM320.169 308.366C330.009 315.567 328.8 329.902 317.87 335.644C307.173 341.264 293.732 331.84 295.211 319.76C296.682 307.76 310.637 301.388 320.169 308.366Z" fill="#198754"/>
</svg>
