<svg width="622" height="622" viewBox="0 0 622 622" fill="none" xmlns="http://www.w3.org/2000/svg">
<path d="M95.8086 43.6875V52.7695L62.8203 129H45.0078L77.9961 56.8711H35.5156V43.6875H95.8086Z" fill="#CFE6DB"/>
<path fill-rule="evenodd" clip-rule="evenodd" d="M102.577 246.921C100.785 247.472 98.9174 248.659 97.3016 250.275C92.802 254.776 93.0013 251.937 93.0013 311.489C93.0013 371.03 92.8031 368.204 97.2947 372.696C102.01 377.413 80.9996 376.99 311 376.99C541 376.99 519.99 377.413 524.705 372.696C529.197 368.204 528.999 371.03 528.999 311.489C528.999 251.949 529.197 254.775 524.705 250.283C519.989 245.565 541.045 245.984 310.752 246.028C130.872 246.063 105.007 246.174 102.577 246.921ZM519.395 250.227C521.631 251.183 524.11 253.736 524.941 255.937C525.794 258.195 525.794 364.784 524.941 367.042C524.11 369.243 521.631 371.795 519.395 372.752C517.837 373.419 485.116 373.543 311.056 373.543C166.558 373.543 104.079 373.36 102.948 372.931C100.747 372.1 98.1954 369.621 97.2389 367.385C96.5858 365.859 96.4479 356.112 96.4479 311.545C96.4479 274.795 96.6432 257.038 97.0591 255.937C97.8662 253.8 100.339 251.206 102.48 250.25C105.09 249.084 516.672 249.061 519.395 250.227ZM214.782 312.064V332.174H216.792H218.803V312.064V291.954H216.792H214.782V312.064ZM308.415 300.114V308.275L306.261 306.181C305.076 305.03 303.379 303.814 302.49 303.48C298.814 302.096 292.901 303.394 290.486 306.114C289.02 307.766 287.309 311.993 286.856 315.08C285.988 321.002 288.622 328.171 292.63 330.798C296.465 333.311 302.662 332.718 305.846 329.534C306.922 328.458 307.94 327.577 308.109 327.577C308.277 327.577 308.415 328.611 308.415 329.875C308.415 332.119 308.463 332.174 310.426 332.174H312.436V312.064V291.954H310.426H308.415V300.114ZM142.977 308.06C142.977 323.794 143.109 324.574 146.387 328.309C149.074 331.371 153.577 332.907 159.062 332.635C163.896 332.394 166.712 331.28 169.462 328.521C172.923 325.049 173.1 324.114 173.314 308.185L173.51 293.678H171.168H168.827V306.807C168.827 320.854 168.544 322.735 166.02 325.47C161.779 330.066 152.752 329.613 149.12 324.623C147.41 322.272 147.051 319.064 147.024 305.887L146.998 293.678H144.988H142.977V308.06ZM335.988 312.926V332.174H338.286H340.583V312.926V293.678H338.286H335.988V312.926ZM191.488 303.647C190.525 304.084 189.056 305.252 188.223 306.242C187.39 307.232 186.563 308.042 186.385 308.042C186.206 308.042 186.06 307.008 186.06 305.744C186.06 303.5 186.012 303.445 184.05 303.445H182.039V322.693V341.941H184.05H186.06V334.759C186.06 330.809 186.198 327.577 186.366 327.577C186.535 327.577 187.553 328.458 188.63 329.534C191.813 332.718 198.01 333.311 201.845 330.798C209.489 325.789 209.634 309.771 202.081 304.771C199.293 302.926 194.257 302.391 191.488 303.647ZM234.104 303.677C227.992 305.954 224.618 313.58 226.248 321.434C227.731 328.582 232.093 332.246 239.116 332.246C247.703 332.246 252.778 325.77 251.981 315.831C251.536 310.295 249.161 306.342 244.978 304.178C242.57 302.933 236.815 302.667 234.104 303.677ZM263.215 304.269C260.47 305.548 258.439 307.872 258.439 309.737C258.439 310.719 262.449 310.464 262.835 309.457C263.373 308.053 266.197 306.893 269.075 306.893C273.598 306.893 275.624 308.598 275.654 312.427C275.675 315.164 275.085 315.491 270.1 315.503C260.536 315.528 255.706 319.669 257.409 326.382C258.154 329.314 260.02 331.007 263.507 331.912C267.559 332.963 271.023 332.111 273.636 329.42L275.672 327.323V329.749V332.174H277.97H280.268V321.63C280.268 308.124 279.669 306.182 274.811 303.951C271.507 302.434 266.884 302.56 263.215 304.269ZM357.423 303.991C356.416 304.605 355.308 305.638 354.961 306.287C354.003 308.076 353.221 307.703 353.221 305.456C353.221 303.541 353.125 303.445 351.211 303.445H349.2V317.81V332.174H351.211H353.221V322.675C353.221 312.266 353.651 310.292 356.389 308.138C358.626 306.378 362.399 306.443 364.534 308.278L366.146 309.664L366.323 320.918L366.501 332.174H368.431H370.361L370.569 321.975C370.796 310.862 371.206 309.148 373.984 307.711C375.908 306.716 380.168 306.669 381.418 307.629C383.41 309.159 383.666 310.741 383.666 321.506V332.174H386.006H388.346L388.161 320.539C387.959 307.943 387.673 306.612 384.695 304.408C382.35 302.672 377.557 302.447 374.638 303.936C373.354 304.592 371.8 305.819 371.185 306.662L370.068 308.197L368.74 306.331C366.326 302.94 360.963 301.832 357.423 303.991ZM400.506 304.269C397.76 305.548 395.729 307.872 395.729 309.737C395.729 310.719 399.739 310.464 400.126 309.457C400.664 308.053 403.488 306.893 406.366 306.893C410.888 306.893 412.915 308.598 412.944 312.427C412.965 315.164 412.375 315.491 407.39 315.503C397.827 315.528 392.996 319.669 394.699 326.382C395.444 329.314 397.311 331.007 400.797 331.912C404.849 332.963 408.314 332.111 410.926 329.42L412.963 327.323V329.749V332.174H415.26H417.558V321.63C417.558 308.124 416.959 306.182 412.101 303.951C408.797 302.434 404.174 302.56 400.506 304.269ZM431.016 303.958C426.597 305.966 423.877 310.805 423.877 316.66C423.877 324.509 428.938 330.425 435.653 330.425C438.523 330.425 442.269 328.763 443.807 326.807C445.321 324.882 445.705 325.351 445.705 329.128C445.705 334.849 443.662 337.406 438.418 338.245C435.337 338.737 431.552 337.622 430.415 335.886C429.694 334.785 428.994 334.472 427.257 334.472C424.666 334.472 424.571 334.767 426.323 337.404C430.092 343.076 442.433 343.68 447.247 338.426C449.531 335.934 449.726 334.373 449.726 318.634V303.445H447.716C445.753 303.445 445.705 303.5 445.705 305.744C445.705 308.383 445.091 308.656 443.752 306.613C441.502 303.177 435.493 301.925 431.016 303.958ZM463.63 304.093C458.906 306.432 456.529 311.069 456.529 317.945C456.529 321.676 456.797 323.044 458.017 325.537C460.574 330.767 465.68 333.095 472.348 332.074C475.818 331.543 478.585 329.703 480.178 326.869L481.394 324.704H479.08C477.403 324.704 476.606 325.002 476.187 325.785C475.515 327.041 471.643 328.726 469.427 328.726C468.585 328.726 466.805 328.198 465.471 327.552C462.978 326.345 461.554 324.241 460.851 320.728L460.497 318.959H470.909H481.32V316.296C481.32 306.246 472.112 299.894 463.63 304.093ZM200.111 308.595C203.762 312.026 204.425 320.923 201.33 324.98C198.401 328.822 194.139 329.798 190.628 327.432C187.473 325.305 186.347 322.776 186.347 317.81C186.347 312.753 187.594 309.659 190.322 307.942C192.833 306.363 198.11 306.715 200.111 308.595ZM244.657 309.126C246.966 311.555 247.525 313.347 247.525 318.334C247.525 328.463 237.635 332.425 231.851 324.613C230.435 322.7 229.844 316.023 230.828 313.043C231.666 310.502 233.503 308.106 235.11 307.456C235.778 307.186 237.72 306.949 239.428 306.929C242.308 306.896 242.686 307.054 244.657 309.126ZM304.153 307.976C306.872 309.635 308.128 312.742 308.128 317.81C308.128 322.776 307.003 325.305 303.847 327.432C300.331 329.801 296.074 328.822 293.134 324.966C291.866 323.304 291.531 322.159 291.312 318.741C290.835 311.305 293.993 306.897 299.798 306.897C301.317 306.897 303.114 307.343 304.153 307.976ZM441.083 307.741C443.87 309.182 445.418 312.368 445.418 316.66C445.418 322.979 442.348 326.428 436.722 326.428C431.59 326.428 428.472 322.736 428.472 316.66C428.472 310.58 431.57 306.893 436.679 306.893C438.199 306.893 440.182 307.274 441.083 307.741ZM474.013 308.582C475.845 310.191 477.585 314.009 476.954 315.031C476.585 315.628 461.383 315.673 461.016 315.079C460.599 314.405 462.137 310.395 463.315 309.085C464.758 307.48 466.187 306.972 469.381 306.929C471.589 306.9 472.445 307.205 474.013 308.582ZM275.553 321.536C275.261 325.057 274.146 326.713 271.239 327.944C265.632 330.317 260.066 326.906 261.857 322.193C262.77 319.793 264.796 319.207 274.738 318.465C275.698 318.393 275.786 318.725 275.553 321.536ZM412.844 321.536C412.552 325.057 411.437 326.713 408.529 327.944C405.321 329.301 402.195 328.962 400.281 327.047C398.479 325.245 398.293 324.443 399.148 322.191C400.06 319.793 402.089 319.206 412.029 318.465C412.988 318.393 413.076 318.725 412.844 321.536Z" fill="#198754"/>
</svg>
