<svg width="512" height="464" viewBox="0 0 512 464" fill="none" xmlns="http://www.w3.org/2000/svg">
<path fill-rule="evenodd" clip-rule="evenodd" d="M239.637 1.12449C221.229 5.32549 204.379 16.3505 194.033 30.9605C188.523 38.7415 11.4075 345.335 6.86246 354.958C1.49646 366.323 -0.0305396 373.471 0.00046039 387.102C0.0214604 396.476 0.52046 400.84 2.28146 407.045C9.07846 430.998 26.4535 450.276 48.7705 458.626C62.5095 463.767 54.1835 463.566 254.597 463.585C456.74 463.603 448.691 463.81 462.424 458.262C472.762 454.087 479.606 449.432 488.435 440.573C497.998 430.977 502.517 424.006 506.533 412.657C513.708 392.383 512.739 373.31 503.56 354.102C499.208 344.994 326.981 46.2405 319.201 34.3035C309.184 18.9325 292.442 6.71449 274.935 1.99749C266.667 -0.229509 247.632 -0.700511 239.637 1.12449ZM268.031 139.105C276.402 143.201 281.8 150.824 283.372 160.77C283.889 164.038 283.154 182.67 281.312 212.976C279.737 238.896 278.051 269.448 277.567 280.871C276.757 299.951 276.488 302.024 274.256 306.362C270.787 313.102 265.06 316.857 257.406 317.411C247.021 318.162 239.565 313.903 235.855 305.102C234.215 301.212 233.453 290.225 226.814 174.592C226.035 161.023 227.499 154.303 232.735 147.418C236.196 142.867 244.854 137.03 249.298 136.251C254.731 135.299 262.749 136.521 268.031 139.105ZM268.031 341.105C284.155 348.994 288.454 371.211 276.487 384.806C259.243 404.395 227.31 392.22 227.31 366.057C227.31 344.934 248.864 331.728 268.031 341.105Z" fill="#E7B537"/>
</svg>
